<?xml version="1.0" encoding="iso-8859-1"?>
<!-- Generator: Adobe Illustrator 22.1.0, SVG Export Plug-In . SVG Version: 6.00 Build 0)  -->
<svg version="1.1" id="list_x5F_is_x5F_empty" xmlns="http://www.w3.org/2000/svg" xmlns:xlink="http://www.w3.org/1999/xlink"
	 x="0px" y="0px" viewBox="0 0 800 600" enable-background="new 0 0 800 600" xml:space="preserve">
<linearGradient id="SVGID_1_" gradientUnits="userSpaceOnUse" x1="140.2582" y1="102.06" x2="340.8731" y2="302.6749">
	<stop  offset="0" style="stop-color:#0BDA4F"/>
	<stop  offset="0.0185" style="stop-color:#15DC50"/>
	<stop  offset="0.1204" style="stop-color:#48E455"/>
	<stop  offset="0.2271" style="stop-color:#74EB5A"/>
	<stop  offset="0.3368" style="stop-color:#9AF15E"/>
	<stop  offset="0.4501" style="stop-color:#B9F661"/>
	<stop  offset="0.5683" style="stop-color:#D1FA64"/>
	<stop  offset="0.6933" style="stop-color:#E2FD66"/>
	<stop  offset="0.8299" style="stop-color:#ECFE67"/>
	<stop  offset="1" style="stop-color:#EFFF67"/>
</linearGradient>
<circle fill="url(#SVGID_1_)" cx="234.198" cy="196" r="122"/>
<linearGradient id="SVGID_2_" gradientUnits="userSpaceOnUse" x1="132.198" y1="486" x2="656.198" y2="486">
	<stop  offset="0" style="stop-color:#EDEDED"/>
	<stop  offset="1" style="stop-color:#DDDDDD"/>
</linearGradient>
<rect x="132.198" y="482" fill="url(#SVGID_2_)" width="524" height="8"/>
<linearGradient id="SVGID_3_" gradientUnits="userSpaceOnUse" x1="609.6392" y1="280.9993" x2="609.6392" y2="364.3293">
	<stop  offset="0" style="stop-color:#00BB4D"/>
	<stop  offset="1" style="stop-color:#00AA21"/>
</linearGradient>
<path fill="url(#SVGID_3_)" d="M685.958,301.18c-30.1,42.56-69.66,68.7-118.7,78.4c-10.02,2-20.42,3.3-31.24,3.92
	c-3.2,0.18-5.26-3.36-3.5-6.04c23.04-35.16,52.06-59.98,87.04-74.48c1.06-0.44,2.12-0.86,3.18-1.26c3.04-1.22,6.14-2.34,9.28-3.36
	c14.62-4.88,30.2-8.08,46.76-9.6C685.458,288.16,689.818,295.72,685.958,301.18z"/>
<polygon fill="none" stroke="#176D3A" stroke-width="2" stroke-linecap="round" stroke-linejoin="round" stroke-miterlimit="10" points="
	596.219,330.929 591.46,348.687 609.219,353.445 "/>
<path fill="#1B8C44" d="M673.601,301.188c-0.275-0.479-0.889-0.645-1.365-0.365l-28.93,16.703l4.11-15.336
	c0.143-0.535-0.174-1.082-0.707-1.227c-0.533-0.131-1.082,0.176-1.227,0.707l-4.627,17.271l-14.87,8.585l4.659-17.389
	c0.143-0.533-0.174-1.08-0.709-1.225c-0.521-0.129-1.08,0.176-1.225,0.709l-5.176,19.319l-16.603,9.586l6.489-24.217
	c0.143-0.535-0.174-1.082-0.709-1.227c-0.521-0.127-1.08,0.174-1.225,0.709l-7.006,26.149l-19.389,11.194
	c-0.479,0.275-0.643,0.887-0.365,1.365c0.184,0.32,0.521,0.5,0.865,0.5c0.17,0,0.342-0.043,0.5-0.135l19.274-11.128l26.327,7.054
	c0.088,0.021,0.174,0.033,0.26,0.033c0.441,0,0.846-0.295,0.967-0.74c0.143-0.535-0.174-1.082-0.707-1.227l-24.396-6.535
	l16.602-9.585l19.498,5.224c0.088,0.021,0.174,0.033,0.26,0.033c0.441,0,0.846-0.295,0.967-0.74
	c0.143-0.535-0.174-1.082-0.707-1.227l-17.566-4.705l14.87-8.585l17.449,4.675c0.088,0.021,0.174,0.033,0.26,0.033
	c0.441,0,0.846-0.295,0.967-0.74c0.143-0.535-0.174-1.082-0.707-1.227l-15.518-4.156l29.045-16.769
	C673.714,302.277,673.878,301.666,673.601,301.188z"/>
<linearGradient id="SVGID_4_" gradientUnits="userSpaceOnUse" x1="625.1096" y1="297.1063" x2="598.1096" y2="348.273">
	<stop  offset="0" style="stop-color:#302926;stop-opacity:0"/>
	<stop  offset="0.29" style="stop-color:#27211F;stop-opacity:0.0435"/>
	<stop  offset="0.7616" style="stop-color:#0F0D0C;stop-opacity:0.1142"/>
	<stop  offset="1" style="stop-color:#000000;stop-opacity:0.15"/>
</linearGradient>
<path fill="url(#SVGID_4_)" d="M632.018,298.36L604.198,352l-10.02-2.86l-3.98-1.14l29.36-45.02l0.64-0.98l2.84-0.94
	c-0.1,0.22-0.2,0.44-0.3,0.66C625.778,300.5,628.878,299.38,632.018,298.36z"/>
<linearGradient id="SVGID_5_" gradientUnits="userSpaceOnUse" x1="578.9976" y1="211.5053" x2="578.9976" y2="361.658">
	<stop  offset="0" style="stop-color:#00E35E"/>
	<stop  offset="1" style="stop-color:#00B248"/>
</linearGradient>
<path fill="url(#SVGID_5_)" d="M647.778,205.66c-3.2,34.72-11.44,66.52-24.74,95.4c-0.1,0.22-0.2,0.44-0.3,0.66
	c-7.82,16.8-17.32,32.6-28.56,47.42c-8.08,10.66-17.06,20.8-26.92,30.44c-14.26,13.92-30.34,26.76-48.3,38.54
	c-3.9,2.56-9.06-0.44-8.78-5.08c5.26-92.56,45.12-165.16,119.56-217.78C637.678,189.66,648.658,196,647.778,205.66z"/>
<path fill="#1B8C44" d="M636.021,207.044c-0.477-0.272-1.09-0.112-1.365,0.366l-24.807,42.968l-6.251-23.331
	c-0.145-0.533-0.684-0.848-1.227-0.707c-0.533,0.143-0.85,0.691-0.707,1.225l6.77,25.264l-13.11,22.708l-7.049-26.309
	c-0.145-0.534-0.686-0.851-1.227-0.707c-0.533,0.143-0.85,0.691-0.707,1.225l7.568,28.242l-14.562,25.222l-9.707-36.228
	c-0.145-0.533-0.688-0.848-1.227-0.707c-0.533,0.143-0.85,0.691-0.707,1.225l10.226,38.161l-10.205,17.675l-6.252-23.333
	c-0.145-0.531-0.686-0.838-1.227-0.707c-0.533,0.145-0.85,0.691-0.707,1.227l6.77,25.264l-14.979,25.945
	c-0.277,0.479-0.113,1.09,0.365,1.365c0.158,0.092,0.33,0.135,0.5,0.135c0.344,0,0.682-0.18,0.865-0.5l14.884-25.781l25.526-6.841
	c0.533-0.145,0.85-0.691,0.707-1.227c-0.145-0.533-0.688-0.836-1.227-0.707l-23.591,6.323l10.205-17.677l38.421-10.295
	c0.533-0.143,0.85-0.691,0.707-1.225c-0.145-0.534-0.689-0.849-1.227-0.707l-36.487,9.776l14.562-25.222l28.501-7.637
	c0.533-0.143,0.85-0.691,0.707-1.225c-0.145-0.533-0.688-0.847-1.227-0.707l-26.567,7.119l13.11-22.707l25.526-6.84
	c0.533-0.143,0.85-0.691,0.707-1.225c-0.145-0.533-0.688-0.848-1.227-0.707l-23.592,6.322l24.903-43.133
	C636.663,207.932,636.499,207.32,636.021,207.044z"/>
<linearGradient id="SVGID_6_" gradientUnits="userSpaceOnUse" x1="542.198" y1="429" x2="628.198" y2="429">
	<stop  offset="0" style="stop-color:#777284"/>
	<stop  offset="1" style="stop-color:#342D47"/>
</linearGradient>
<path fill="url(#SVGID_6_)" d="M568.198,482h-26V376h86v46C628.198,455.137,601.335,482,568.198,482z"/>
<linearGradient id="SVGID_7_" gradientUnits="userSpaceOnUse" x1="558.198" y1="372" x2="640.198" y2="372">
	<stop  offset="0" style="stop-color:#676370"/>
	<stop  offset="1" style="stop-color:#3F3454"/>
</linearGradient>
<path fill="url(#SVGID_7_)" d="M636.198,380h-78v-16h78c2.209,0,4,1.791,4,4v8C640.198,378.209,638.407,380,636.198,380z"/>
<linearGradient id="SVGID_8_" gradientUnits="userSpaceOnUse" x1="622.198" y1="351.3333" x2="622.198" y2="364.1764">
	<stop  offset="0" style="stop-color:#B6DD54"/>
	<stop  offset="0.1433" style="stop-color:#B2DC54"/>
	<stop  offset="0.2918" style="stop-color:#A5D753"/>
	<stop  offset="0.4428" style="stop-color:#91D051"/>
	<stop  offset="0.5954" style="stop-color:#74C64F"/>
	<stop  offset="0.7494" style="stop-color:#4EB94D"/>
	<stop  offset="0.9024" style="stop-color:#21A949"/>
	<stop  offset="1" style="stop-color:#009E47"/>
</linearGradient>
<path fill="url(#SVGID_8_)" d="M622.198,352L622.198,352c3.314,0,6,2.686,6,6v6h-12v-6C616.198,354.686,618.884,352,622.198,352z"/>
<linearGradient id="SVGID_9_" gradientUnits="userSpaceOnUse" x1="609.198" y1="343.1667" x2="609.198" y2="365.8554">
	<stop  offset="0" style="stop-color:#B6DD54"/>
	<stop  offset="0.1433" style="stop-color:#B2DC54"/>
	<stop  offset="0.2918" style="stop-color:#A5D753"/>
	<stop  offset="0.4428" style="stop-color:#91D051"/>
	<stop  offset="0.5954" style="stop-color:#74C64F"/>
	<stop  offset="0.7494" style="stop-color:#4EB94D"/>
	<stop  offset="0.9024" style="stop-color:#21A949"/>
	<stop  offset="1" style="stop-color:#009E47"/>
</linearGradient>
<path fill="url(#SVGID_9_)" d="M609.198,344L609.198,344c3.866,0,7,3.134,7,7v13h-14v-13C602.198,347.134,605.332,344,609.198,344z"
	/>
<linearGradient id="SVGID_10_" gradientUnits="userSpaceOnUse" x1="580.198" y1="325.875" x2="580.198" y2="362.5019">
	<stop  offset="0" style="stop-color:#B6DD54"/>
	<stop  offset="0.1433" style="stop-color:#B2DC54"/>
	<stop  offset="0.2918" style="stop-color:#A5D753"/>
	<stop  offset="0.4428" style="stop-color:#91D051"/>
	<stop  offset="0.5954" style="stop-color:#74C64F"/>
	<stop  offset="0.7494" style="stop-color:#4EB94D"/>
	<stop  offset="0.9024" style="stop-color:#21A949"/>
	<stop  offset="1" style="stop-color:#009E47"/>
</linearGradient>
<path fill="url(#SVGID_10_)" d="M580.198,328L580.198,328c4.418,0,8,3.582,8,8v28h-16v-28C572.198,331.582,575.78,328,580.198,328z"
	/>
<linearGradient id="SVGID_11_" gradientUnits="userSpaceOnUse" x1="450.198" y1="155.3333" x2="450.198" y2="482.6694">
	<stop  offset="0" style="stop-color:#FFE552"/>
	<stop  offset="1" style="stop-color:#FF5E19"/>
</linearGradient>
<path fill="url(#SVGID_11_)" d="M572.198,474c0,4.418-3.582,8-8,8h-228c-4.418,0-8-3.582-8-8V166c0-4.418,3.582-8,8-8h228
	c4.418,0,8,3.582,8,8V474z"/>
<linearGradient id="SVGID_12_" gradientUnits="userSpaceOnUse" x1="344.198" y1="458" x2="556.198" y2="458">
	<stop  offset="0" style="stop-color:#C8C8C8"/>
	<stop  offset="0.0552" style="stop-color:#C3C3C3"/>
	<stop  offset="0.2781" style="stop-color:#B5B5B5"/>
	<stop  offset="0.5491" style="stop-color:#ADADAD"/>
	<stop  offset="1" style="stop-color:#AAAAAA"/>
</linearGradient>
<path fill="url(#SVGID_12_)" d="M552.198,466h-204c-2.209,0-4-1.791-4-4v-12h212v12C556.198,464.209,554.407,466,552.198,466z"/>
<path fill="#FFFFFF" d="M556.198,442c0,2.209-1.791,4-4,4h-204c-2.209,0-4-1.791-4-4V178c0-2.209,1.791-4,4-4h204
	c2.209,0,4,1.791,4,4V442z"/>
<linearGradient id="SVGID_13_" gradientUnits="userSpaceOnUse" x1="558.198" y1="432" x2="343.522" y2="432">
	<stop  offset="0" style="stop-color:#DEDEDE"/>
	<stop  offset="0.0228" style="stop-color:#DCDCDC"/>
	<stop  offset="0.2534" style="stop-color:#CECECE"/>
	<stop  offset="0.5336" style="stop-color:#C6C6C6"/>
	<stop  offset="1" style="stop-color:#C3C3C3"/>
</linearGradient>
<path fill="url(#SVGID_13_)" d="M524.198,406c-6.627,0-12,5.373-12,12v28h-168v8c0,2.209,1.791,4,4,4h204c2.209,0,4-1.791,4-4v-4v-8
	v-36H524.198z"/>
<linearGradient id="SVGID_14_" gradientUnits="userSpaceOnUse" x1="450.198" y1="144.75" x2="450.198" y2="186.8102">
	<stop  offset="0" style="stop-color:#F0F0F0"/>
	<stop  offset="1" style="stop-color:#D3D3D3"/>
</linearGradient>
<path fill="url(#SVGID_14_)" d="M518.198,150h-136c-2.2,0-4,1.8-4,4v28c0,2.209,1.791,4,4,4h136c2.209,0,4-1.791,4-4v-28
	C522.198,151.8,520.398,150,518.198,150z M416.198,172c-3.32,0-6-2.68-6-6c0-3.32,2.68-6,6-6s6,2.68,6,6
	C422.198,169.32,419.518,172,416.198,172z M484.198,172c-3.32,0-6-2.68-6-6c0-3.32,2.68-6,6-6s6,2.68,6,6
	C490.198,169.32,487.518,172,484.198,172z"/>
<linearGradient id="SVGID_15_" gradientUnits="userSpaceOnUse" x1="450.198" y1="133.25" x2="450.198" y2="150.529">
	<stop  offset="0" style="stop-color:#F0F0F0"/>
	<stop  offset="0.3124" style="stop-color:#ECECEC"/>
	<stop  offset="0.6359" style="stop-color:#DFDFDF"/>
	<stop  offset="0.9636" style="stop-color:#CBCBCB"/>
	<stop  offset="1" style="stop-color:#C8C8C8"/>
</linearGradient>
<path fill="url(#SVGID_15_)" d="M488.198,150h-8v-8h-60v8h-8v-8c0-4.411,3.588-8,8-8h60c4.412,0,8,3.589,8,8V150z"/>
<linearGradient id="SVGID_16_" gradientUnits="userSpaceOnUse" x1="383.198" y1="246" x2="263.1753" y2="246">
	<stop  offset="0" style="stop-color:#EDEDED"/>
	<stop  offset="0.3514" style="stop-color:#E4E4E4"/>
	<stop  offset="0.9227" style="stop-color:#CCCCCC"/>
	<stop  offset="1" style="stop-color:#C8C8C8"/>
</linearGradient>
<path fill="url(#SVGID_16_)" d="M380.198,246c0,1.105-0.895,2-2,2h-112c-1.105,0-2-0.895-2-2l0,0c0-1.105,0.895-2,2-2h112
	C379.303,244,380.198,244.895,380.198,246L380.198,246z"/>
<linearGradient id="SVGID_17_" gradientUnits="userSpaceOnUse" x1="511.8648" y1="401.6667" x2="549.0146" y2="438.8165">
	<stop  offset="0" style="stop-color:#F5F5F5"/>
	<stop  offset="0.3042" style="stop-color:#ECECEC"/>
	<stop  offset="0.7987" style="stop-color:#D4D4D4"/>
	<stop  offset="1" style="stop-color:#C8C8C8"/>
</linearGradient>
<path fill="url(#SVGID_17_)" d="M546.198,402h-30c-2.209,0-4,1.791-4,4v30c0,5.52-4.48,10-10,10h10c24.301,0,44-19.699,44-44v-10
	C556.198,397.52,551.718,402,546.198,402z"/>
<linearGradient id="SVGID_18_" gradientUnits="userSpaceOnUse" x1="242.198" y1="252" x2="242.198" y2="482.0473">
	<stop  offset="0" style="stop-color:#FFFFFF"/>
	<stop  offset="0.3622" style="stop-color:#FBFEFF"/>
	<stop  offset="0.7367" style="stop-color:#EEFBFF"/>
	<stop  offset="1" style="stop-color:#E1F8FF"/>
</linearGradient>
<path fill="url(#SVGID_18_)" d="M308.198,478c0,2.209-1.791,4-4,4h-124c-2.209,0-4-1.791-4-4V258c0-2.209,1.791-4,4-4h124
	c2.209,0,4,1.791,4,4V478z"/>
<linearGradient id="SVGID_19_" gradientUnits="userSpaceOnUse" x1="322.198" y1="266" x2="322.198" y2="416.8789">
	<stop  offset="0" style="stop-color:#FFE552"/>
	<stop  offset="1" style="stop-color:#FFAE39"/>
</linearGradient>
<rect x="264.198" y="268" fill="url(#SVGID_19_)" width="116" height="148"/>
<polygon fill="#CCCECE" points="292.198,472 186.198,472 186.198,264 252.198,264 252.198,262 186.198,262 186.198,250 184.198,250 
	184.198,262 172.198,262 172.198,264 184.198,264 184.198,472 172.198,472 172.198,474 184.198,474 184.198,478 186.198,478 
	186.198,474 292.198,474 "/>
<linearGradient id="SVGID_20_" gradientUnits="userSpaceOnUse" x1="188.6982" y1="353.0869" x2="270.9577" y2="353.0869">
	<stop  offset="0" style="stop-color:#919191"/>
	<stop  offset="0.2514" style="stop-color:#8D8D8D"/>
	<stop  offset="0.5118" style="stop-color:#808080"/>
	<stop  offset="0.7755" style="stop-color:#6C6C6C"/>
	<stop  offset="1" style="stop-color:#545454"/>
</linearGradient>
<path fill="url(#SVGID_20_)" d="M234.056,378.199c-2.638,0-5.202-1.059-7.07-2.926l-38.03-38.031l8.486-8.484l36.538,36.539
	l33.77-37.322l8.898,8.051l-35.181,38.883c-1.827,2.02-4.438,3.219-7.162,3.287C234.222,378.197,234.139,378.199,234.056,378.199z"
	/>
<linearGradient id="SVGID_21_" gradientUnits="userSpaceOnUse" x1="234.1982" y1="361.25" x2="234.1982" y2="382.0962">
	<stop  offset="0" style="stop-color:#C8C8C8"/>
	<stop  offset="0.41" style="stop-color:#BFBFBF"/>
	<stop  offset="1" style="stop-color:#AAAAAA"/>
</linearGradient>
<circle fill="url(#SVGID_21_)" cx="234.198" cy="372" r="10"/>
<linearGradient id="SVGID_22_" gradientUnits="userSpaceOnUse" x1="128.1982" y1="318.998" x2="192.2003" y2="318.998">
	<stop  offset="0" style="stop-color:#EBEBEB"/>
	<stop  offset="1" style="stop-color:#DCDCDC"/>
</linearGradient>
<path fill="url(#SVGID_22_)" d="M190.442,321.76l-16.007-16.006c-2.342-2.344-6.142-2.344-8.485,0
	c-2.343,2.344-2.343,6.143,0.001,8.484l7.762,7.762h-41.515c-2.209,0-4,1.791-4,4c0,4.418,3.582,8,8,8h48l1.998-2
	c0.001,0,0.002,0,0.004,0c1.535,0,3.071-0.585,4.243-1.757C192.786,327.899,192.786,324.102,190.442,321.76z"/>
<linearGradient id="SVGID_23_" gradientUnits="userSpaceOnUse" x1="187.9066" y1="327.7083" x2="194.3208" y2="334.1226">
	<stop  offset="0" style="stop-color:#C8C8C8"/>
	<stop  offset="0.0032" style="stop-color:#C8C8C8"/>
	<stop  offset="0.3773" style="stop-color:#D0D0D0"/>
	<stop  offset="1" style="stop-color:#D3D3D3"/>
</linearGradient>
<path fill="url(#SVGID_23_)" d="M183.612,341.414l-2.828-2.828c-0.781-0.781-0.781-2.047,0-2.828l15.172-15.172
	c0.781-0.781,2.047-0.781,2.828,0l2.828,2.828c0.781,0.781,0.781,2.047,0,2.828l-15.172,15.172
	C185.659,342.195,184.393,342.195,183.612,341.414z"/>
<linearGradient id="SVGID_24_" gradientUnits="userSpaceOnUse" x1="175.976" y1="333.7778" x2="165.3639" y2="323.1656">
	<stop  offset="0" style="stop-color:#000000;stop-opacity:0.15"/>
	<stop  offset="1" style="stop-color:#6086C4;stop-opacity:0"/>
</linearGradient>
<polygon fill="url(#SVGID_24_)" points="173.713,322 180.198,328 154.198,322 "/>
<linearGradient id="SVGID_25_" gradientUnits="userSpaceOnUse" x1="193.7164" y1="333.5183" x2="198.0044" y2="337.8062">
	<stop  offset="0" style="stop-color:#2B2929;stop-opacity:0.3"/>
	<stop  offset="1" style="stop-color:#302926;stop-opacity:0"/>
</linearGradient>
<polygon fill="url(#SVGID_25_)" points="198.269,329.585 189.784,338.071 193.565,341.852 202.019,333.336 "/>
<linearGradient id="SVGID_26_" gradientUnits="userSpaceOnUse" x1="264.6973" y1="331.7471" x2="256.6102" y2="360.3919">
	<stop  offset="0" style="stop-color:#2B2929;stop-opacity:0.2"/>
	<stop  offset="0.1447" style="stop-color:#2C2928;stop-opacity:0.1711"/>
	<stop  offset="1" style="stop-color:#302926;stop-opacity:0"/>
</linearGradient>
<polygon fill="url(#SVGID_26_)" points="264.198,332 264.198,349.719 254.26,360.769 258.198,338.565 "/>
<linearGradient id="SVGID_27_" gradientUnits="userSpaceOnUse" x1="208.0771" y1="353.0869" x2="290.3366" y2="353.0869" gradientTransform="matrix(-1 0 0 1 664.2246 0)">
	<stop  offset="0" style="stop-color:#939393"/>
	<stop  offset="0.3251" style="stop-color:#8F8F8F"/>
	<stop  offset="0.662" style="stop-color:#828282"/>
	<stop  offset="1" style="stop-color:#6E6E6E"/>
</linearGradient>
<path fill="url(#SVGID_27_)" d="M410.79,378.199c2.638,0,5.202-1.059,7.07-2.926l38.03-38.031l-8.486-8.484l-36.538,36.539
	l-33.77-37.322l-8.898,8.051l35.181,38.883c1.827,2.02,4.438,3.219,7.162,3.287C410.624,378.197,410.707,378.199,410.79,378.199z"/>
<linearGradient id="SVGID_28_" gradientUnits="userSpaceOnUse" x1="253.5771" y1="361.25" x2="253.5771" y2="382.0962" gradientTransform="matrix(-1 0 0 1 664.2246 0)">
	<stop  offset="0" style="stop-color:#C8C8C8"/>
	<stop  offset="0.41" style="stop-color:#BFBFBF"/>
	<stop  offset="1" style="stop-color:#AAAAAA"/>
</linearGradient>
<circle fill="url(#SVGID_28_)" cx="410.647" cy="372" r="10"/>
<linearGradient id="SVGID_29_" gradientUnits="userSpaceOnUse" x1="147.5771" y1="318.998" x2="211.5792" y2="318.998" gradientTransform="matrix(-1 0 0 1 664.2246 0)">
	<stop  offset="0" style="stop-color:#EBEBEB"/>
	<stop  offset="1" style="stop-color:#DCDCDC"/>
</linearGradient>
<path fill="url(#SVGID_29_)" d="M454.403,321.76l16.007-16.006c2.342-2.344,6.142-2.344,8.485,0
	c2.343,2.344,2.343,6.143-0.001,8.484L471.132,322h41.515c2.209,0,4,1.791,4,4c0,4.418-3.582,8-8,8h-48l-1.998-2h-0.004
	c-1.535,0-3.071-0.585-4.243-1.757C452.06,327.899,452.06,324.102,454.403,321.76z"/>
<linearGradient id="SVGID_30_" gradientUnits="userSpaceOnUse" x1="207.2855" y1="327.7083" x2="213.6997" y2="334.1226" gradientTransform="matrix(-1 0 0 1 664.2246 0)">
	<stop  offset="0" style="stop-color:#C8C8C8"/>
	<stop  offset="0.0032" style="stop-color:#C8C8C8"/>
	<stop  offset="0.3773" style="stop-color:#D0D0D0"/>
	<stop  offset="1" style="stop-color:#D3D3D3"/>
</linearGradient>
<path fill="url(#SVGID_30_)" d="M461.233,341.414l2.828-2.828c0.781-0.781,0.781-2.047,0-2.828l-15.172-15.172
	c-0.781-0.781-2.047-0.781-2.828,0l-2.828,2.828c-0.781,0.781-0.781,2.047,0,2.828l15.172,15.172
	C459.186,342.195,460.452,342.195,461.233,341.414z"/>
<linearGradient id="SVGID_31_" gradientUnits="userSpaceOnUse" x1="195.3549" y1="333.7778" x2="184.7428" y2="323.1656" gradientTransform="matrix(-1 0 0 1 664.2246 0)">
	<stop  offset="0" style="stop-color:#000000;stop-opacity:0.15"/>
	<stop  offset="1" style="stop-color:#6086C4;stop-opacity:0"/>
</linearGradient>
<polygon fill="url(#SVGID_31_)" points="471.132,322 464.647,328 490.647,322 "/>
<linearGradient id="SVGID_32_" gradientUnits="userSpaceOnUse" x1="213.0954" y1="333.5183" x2="217.3833" y2="337.8062" gradientTransform="matrix(-1 0 0 1 664.2246 0)">
	<stop  offset="0" style="stop-color:#2B2929;stop-opacity:0.3"/>
	<stop  offset="1" style="stop-color:#302926;stop-opacity:0"/>
</linearGradient>
<polygon fill="url(#SVGID_32_)" points="446.577,329.585 455.062,338.071 451.281,341.852 442.827,333.336 "/>
<linearGradient id="SVGID_33_" gradientUnits="userSpaceOnUse" x1="284.4741" y1="331.7317" x2="276.3707" y2="360.4341" gradientTransform="matrix(-1 0 0 1 664.2246 0)">
	<stop  offset="0" style="stop-color:#2B2929;stop-opacity:0.2"/>
	<stop  offset="0.1447" style="stop-color:#2C2928;stop-opacity:0.1711"/>
	<stop  offset="1" style="stop-color:#302926;stop-opacity:0"/>
</linearGradient>
<polygon fill="url(#SVGID_33_)" points="380.198,332 380.198,349.719 390.361,360.769 386.31,338.565 "/>
<linearGradient id="SVGID_34_" gradientUnits="userSpaceOnUse" x1="322.198" y1="269.75" x2="322.198" y2="253.7188">
	<stop  offset="0" style="stop-color:#F0F0F0"/>
	<stop  offset="1" style="stop-color:#FFFFFF"/>
</linearGradient>
<rect x="264.198" y="254" fill="url(#SVGID_34_)" width="116" height="16"/>
<linearGradient id="SVGID_35_" gradientUnits="userSpaceOnUse" x1="385.948" y1="246" x2="260.708" y2="246">
	<stop  offset="0" style="stop-color:#EDEDED"/>
	<stop  offset="1" style="stop-color:#D2D2D2"/>
</linearGradient>
<path fill="url(#SVGID_35_)" d="M384.198,242c0-2.209-1.791-4-4-4h-116c-2.209,0-4,1.791-4,4v8c0,2.209,1.791,4,4,4h116
	c2.209,0,4-1.791,4-4V242z"/>
<linearGradient id="SVGID_36_" gradientUnits="userSpaceOnUse" x1="264.198" y1="214" x2="380.198" y2="214">
	<stop  offset="0" style="stop-color:#FF7955"/>
	<stop  offset="0.4556" style="stop-color:#FF705E"/>
	<stop  offset="1" style="stop-color:#FF5F6F"/>
</linearGradient>
<path fill="url(#SVGID_36_)" d="M364.198,190h-84c-8.837,0-16,7.163-16,16v32h116v-32C380.198,197.163,373.035,190,364.198,190z"/>
<linearGradient id="SVGID_37_" gradientUnits="userSpaceOnUse" x1="368.1981" y1="189.5" x2="368.1981" y2="237.6099">
	<stop  offset="0" style="stop-color:#AB2926;stop-opacity:0"/>
	<stop  offset="0.1446" style="stop-color:#B1211F;stop-opacity:0.0289"/>
	<stop  offset="0.6743" style="stop-color:#C50908;stop-opacity:0.1349"/>
	<stop  offset="1" style="stop-color:#CC0000;stop-opacity:0.2"/>
</linearGradient>
<path fill="url(#SVGID_37_)" d="M380.198,206v32h-8v-32c0-8.84-7.16-16-16-16h8C373.038,190,380.198,197.16,380.198,206z"/>
<linearGradient id="SVGID_38_" gradientUnits="userSpaceOnUse" x1="278.198" y1="268" x2="278.198" y2="418.8789">
	<stop  offset="0" style="stop-color:#FFE552"/>
	<stop  offset="1" style="stop-color:#FFAE39"/>
</linearGradient>
<rect x="264.198" y="270" fill="url(#SVGID_38_)" width="28" height="148"/>
<linearGradient id="SVGID_39_" gradientUnits="userSpaceOnUse" x1="307.198" y1="270" x2="307.198" y2="419.3426">
	<stop  offset="0" style="stop-color:#FFE552"/>
	<stop  offset="1" style="stop-color:#FF9617"/>
</linearGradient>
<rect x="292.198" y="270" fill="url(#SVGID_39_)" width="30" height="148"/>
<linearGradient id="SVGID_40_" gradientUnits="userSpaceOnUse" x1="337.198" y1="270.3333" x2="337.198" y2="419.0374">
	<stop  offset="0" style="stop-color:#FFE552"/>
	<stop  offset="1" style="stop-color:#FF821A"/>
</linearGradient>
<rect x="322.198" y="270" fill="url(#SVGID_40_)" width="30" height="148"/>
<linearGradient id="SVGID_41_" gradientUnits="userSpaceOnUse" x1="366.198" y1="272" x2="366.198" y2="419.1666">
	<stop  offset="0" style="stop-color:#FFE552"/>
	<stop  offset="1" style="stop-color:#FF7024"/>
</linearGradient>
<path fill="url(#SVGID_41_)" d="M379.104,418h-26.906V270h28v146.906C380.198,417.51,379.708,418,379.104,418z"/>
<linearGradient id="SVGID_42_" gradientUnits="userSpaceOnUse" x1="281.6953" y1="455.5" x2="362.9034" y2="455.5">
	<stop  offset="0" style="stop-color:#FFEFAB"/>
	<stop  offset="0.1407" style="stop-color:#FFEBA2"/>
	<stop  offset="0.3701" style="stop-color:#FFE18A"/>
	<stop  offset="0.6581" style="stop-color:#FFD062"/>
	<stop  offset="0.7" style="stop-color:#FFCD5C"/>
	<stop  offset="0.7989" style="stop-color:#FECB58"/>
	<stop  offset="0.9012" style="stop-color:#FCC44B"/>
	<stop  offset="1" style="stop-color:#F9B938"/>
</linearGradient>
<path fill="url(#SVGID_42_)" d="M366.198,404c-5.912,0-10.968,3.664-13.021,8.846c-0.351,0.886-1.585,0.813-1.918-0.08
	c-2.124-5.703-7.618-9.766-14.062-9.766c-6.432,0-11.918,4.048-14.05,9.735c-0.32,0.855-1.58,0.855-1.9,0
	c-2.132-5.687-7.618-9.735-14.05-9.735c-6.443,0-11.938,4.063-14.062,9.766c-0.333,0.893-1.567,0.966-1.918,0.08
	c-2.053-5.182-7.109-8.846-13.021-8.846c-7.732,0-14,6.268-14,14l52,90h12l51.591-89.292c0.267-0.462,0.416-0.995,0.385-1.528
	C379.75,409.83,373.655,404,366.198,404z"/>
<rect x="302.198" y="264" fill="#C9C9C9" width="82" height="2"/>
<rect x="260.198" y="258" fill="#C9C9C9" width="82" height="2"/>
<rect x="260.198" y="264" fill="#C9C9C9" width="26" height="2"/>
<rect x="358.198" y="258" fill="#C9C9C9" width="26" height="2"/>
<path opacity="0.1" fill="#3D3630" d="M346.199,341c-5.926,0-11.509-3.156-14.57-8.236c-0.855-1.42-0.398-3.264,1.021-4.119
	c1.419-0.855,3.263-0.396,4.117,1.021c2.013,3.34,5.538,5.334,9.432,5.334s7.419-1.994,9.43-5.332
	c0.854-1.42,2.698-1.879,4.118-1.023c1.419,0.855,1.877,2.699,1.022,4.117C357.709,337.844,352.126,341,346.199,341z"/>
<path opacity="0.1" fill="#3D3630" d="M298.199,341c-5.927,0-11.51-3.156-14.57-8.238c-0.854-1.418-0.396-3.262,1.022-4.117
	c1.422-0.852,3.265-0.396,4.118,1.023c2.011,3.338,5.536,5.332,9.43,5.332s7.419-1.994,9.432-5.334
	c0.854-1.418,2.698-1.877,4.117-1.021c1.42,0.855,1.877,2.699,1.021,4.119C309.708,337.844,304.125,341,298.199,341z"/>
<path opacity="0.1" fill="#3D3630" d="M322.199,367c-6.345,0-12.028-4.016-14.144-9.994c-0.553-1.561,0.266-3.275,1.827-3.828
	c1.562-0.555,3.276,0.264,3.829,1.828c1.269,3.584,4.68,5.994,8.487,5.994c3.868,0,7.2-2.355,8.489-6
	c0.553-1.564,2.266-2.383,3.828-1.828c1.562,0.553,2.381,2.266,1.828,3.828C334.196,363.074,328.645,367,322.199,367z"/>
<path opacity="0.1" fill="#3D3630" d="M359.782,321.897l-20.219-6.74c-1.044-0.348-1.608-1.476-1.26-2.52l1.269-3.809
	c0.348-1.044,1.476-1.608,2.521-1.26l20.219,6.74c1.044,0.348,1.608,1.476,1.26,2.52l-1.269,3.809
	C361.954,321.681,360.826,322.245,359.782,321.897z"/>
<path opacity="0.1" fill="#3D3630" d="M284.617,321.897l20.219-6.74c1.044-0.348,1.608-1.476,1.26-2.52l-1.269-3.809
	c-0.348-1.044-1.477-1.608-2.521-1.26l-20.219,6.74c-1.044,0.348-1.608,1.476-1.26,2.52l1.269,3.809
	C282.444,321.681,283.573,322.245,284.617,321.897z"/>
<path fill="#423A34" d="M346.198,339c-5.926,0-11.509-3.156-14.57-8.236c-0.855-1.42-0.398-3.264,1.021-4.119
	c1.419-0.855,3.263-0.396,4.117,1.021c2.013,3.34,5.538,5.334,9.432,5.334s7.419-1.994,9.43-5.332
	c0.854-1.42,2.698-1.879,4.118-1.023c1.419,0.855,1.877,2.699,1.022,4.117C357.708,335.844,352.125,339,346.198,339z"/>
<path fill="#423A34" d="M298.198,339c-5.927,0-11.51-3.156-14.57-8.238c-0.854-1.418-0.396-3.262,1.022-4.117
	c1.422-0.852,3.265-0.396,4.118,1.023c2.011,3.338,5.536,5.332,9.43,5.332s7.419-1.994,9.432-5.334
	c0.854-1.418,2.698-1.877,4.117-1.021c1.42,0.855,1.877,2.699,1.021,4.119C309.707,335.844,304.124,339,298.198,339z"/>
<path fill="#423A34" d="M322.198,365c-6.345,0-12.028-4.016-14.144-9.994c-0.553-1.561,0.266-3.275,1.827-3.828
	c1.562-0.555,3.276,0.264,3.829,1.828c1.269,3.584,4.68,5.994,8.487,5.994c3.868,0,7.2-2.355,8.489-6
	c0.553-1.564,2.266-2.383,3.828-1.828c1.562,0.553,2.381,2.266,1.828,3.828C334.195,361.074,328.644,365,322.198,365z"/>
<path fill="#423A34" d="M359.781,319.897l-20.219-6.74c-1.044-0.348-1.608-1.476-1.26-2.52l1.269-3.809
	c0.348-1.044,1.477-1.608,2.521-1.26l20.219,6.74c1.044,0.348,1.608,1.476,1.26,2.52l-1.269,3.809
	C361.953,319.681,360.825,320.245,359.781,319.897z"/>
<path fill="#423A34" d="M284.616,319.897l20.219-6.74c1.044-0.348,1.608-1.476,1.26-2.52l-1.269-3.809
	c-0.348-1.044-1.477-1.608-2.521-1.26l-20.219,6.74c-1.044,0.348-1.608,1.476-1.26,2.52l1.269,3.809
	C282.443,319.681,283.572,320.245,284.616,319.897z"/>
<linearGradient id="SVGID_43_" gradientUnits="userSpaceOnUse" x1="595.198" y1="334.625" x2="595.198" y2="364.9122">
	<stop  offset="0" style="stop-color:#B6DD54"/>
	<stop  offset="0.1433" style="stop-color:#B2DC54"/>
	<stop  offset="0.2918" style="stop-color:#A5D753"/>
	<stop  offset="0.4428" style="stop-color:#91D051"/>
	<stop  offset="0.5954" style="stop-color:#74C64F"/>
	<stop  offset="0.7494" style="stop-color:#4EB94D"/>
	<stop  offset="0.9024" style="stop-color:#21A949"/>
	<stop  offset="1" style="stop-color:#009E47"/>
</linearGradient>
<path fill="url(#SVGID_43_)" d="M595.198,336L595.198,336c3.866,0,7,3.134,7,7v21h-14v-21C588.198,339.134,591.332,336,595.198,336z
	"/>
<rect x="260.198" y="232" fill="#D33D24" width="108" height="2"/>
<linearGradient id="SVGID_44_" gradientUnits="userSpaceOnUse" x1="600.1981" y1="373" x2="600.1981" y2="405.6742">
	<stop  offset="0" style="stop-color:#000000;stop-opacity:0.4"/>
	<stop  offset="0.6" style="stop-color:#302926;stop-opacity:0"/>
</linearGradient>
<polygon fill="url(#SVGID_44_)" points="572.198,380 628.198,380 628.198,394 "/>
<path fill="#21AA5B" d="M179.198,195c-4.411,0-8-3.589-8-8s3.589-8,8-8s8,3.589,8,8S183.609,195,179.198,195z M179.198,181
	c-3.309,0-6,2.691-6,6s2.691,6,6,6s6-2.691,6-6S182.507,181,179.198,181z"/>
<rect x="194.198" y="186" fill="#21AA5B" width="60" height="2">
<animate attributeName="width" from="0" to="30" dur="4.5s" repeatCount="indefinite"/>
</rect>
<path fill="#21AA5B" d="M179.198,219c-4.411,0-8-3.589-8-8s3.589-8,8-8s8,3.589,8,8S183.609,219,179.198,219z M179.198,205
	c-3.309,0-6,2.691-6,6s2.691,6,6,6s6-2.691,6-6S182.507,205,179.198,205z"/>
<rect x="194.198" y="210" fill="#21AA5B" width="60" height="2">
<animate attributeName="width" from="0" to="60" dur="1.5s" repeatCount="indefinite"/>
</rect>

<path fill="#21AA5B" d="M179.198,171c-4.411,0-8-3.589-8-8s3.589-8,8-8s8,3.589,8,8S183.609,171,179.198,171z M179.198,157
	c-3.309,0-6,2.691-6,6s2.691,6,6,6s6-2.691,6-6S182.507,157,179.198,157z"/>
<rect x="194.198" y="162" fill="#21AA5B" width="60" height="2">
<animate attributeName="width" from="0" to="60" dur="2.5s" repeatCount="indefinite"/>
</rect>
<linearGradient id="SVGID_45_" gradientUnits="userSpaceOnUse" x1="594.1981" y1="482.75" x2="594.1981" y2="381.9392">
	<stop  offset="0" style="stop-color:#000000;stop-opacity:0.3"/>
	<stop  offset="0.177" style="stop-color:#120F0E;stop-opacity:0.2469"/>
	<stop  offset="0.4147" style="stop-color:#231E1C;stop-opacity:0.1756"/>
	<stop  offset="0.6754" style="stop-color:#2D2623;stop-opacity:0.0974"/>
	<stop  offset="1" style="stop-color:#302926;stop-opacity:0"/>
</linearGradient>
<path fill="url(#SVGID_45_)" d="M628.198,380v42c0,33.14-26.86,60-60,60h-8c33.14,0,60-26.86,60-60v-42H628.198z"/>
<linearGradient id="SVGID_46_" gradientUnits="userSpaceOnUse" x1="322.1981" y1="498" x2="322.1981" y2="526">
	<stop  offset="0" style="stop-color:#35302D"/>
	<stop  offset="1" style="stop-color:#2D2420"/>
</linearGradient>
<path fill="url(#SVGID_46_)" d="M322.198,498c-3.78,0-7.06,2.1-8.78,5.2l2.78,4.8v12c0,3.314,2.686,6,6,6s6-2.686,6-6v-12l2.78-4.8
	C329.258,500.1,325.978,498,322.198,498z"/>
<linearGradient id="SVGID_47_" gradientUnits="userSpaceOnUse" x1="326.1982" y1="456" x2="380.1005" y2="456">
	<stop  offset="0" style="stop-color:#302926;stop-opacity:0"/>
	<stop  offset="1" style="stop-color:#302926;stop-opacity:0.1"/>
</linearGradient>
<path fill="url(#SVGID_47_)" d="M379.915,418.49L328.198,508h-2c0,0,22.5-46,26-56c7.04-15.08,4.26-27.82,1.92-34
	c-0.94-2.52-1.82-3.94-1.92-4c0.02-0.18,0.04-0.34,0.1-0.52c0.36-0.02,0.7-0.22,0.88-0.64c1.94-4.86,6.48-8.38,11.92-8.8
	c0.36-0.04,0.74-0.04,1.1-0.04c0.48,0,0.96,0.02,1.44,0.08c0.4,0.04,0.8,0.1,1.2,0.18c0.26,0.04,0.54,0.1,0.8,0.18
	c0.16,0.02,0.32,0.06,0.48,0.12c0.2,0.04,0.4,0.1,0.58,0.18c0.28,0.08,0.54,0.18,0.8,0.3c0.36,0.14,0.7,0.3,1.04,0.48
	c0.2,0.08,0.4,0.2,0.6,0.32c0.3,0.16,0.58,0.34,0.84,0.52c0.02,0,0.04,0.02,0.06,0.02c0.38,0.26,0.72,0.54,1.06,0.82
	c0.3,0.24,0.6,0.52,0.88,0.8c0.96,0.92,1.78,2,2.44,3.18c0.4,0.7,0.74,1.46,1,2.24c0.14,0.38,0.24,0.76,0.34,1.16
	C379.778,414.6,380.402,417.749,379.915,418.49z"/>
</svg>
